<svg width="60" height="60" viewBox="0 0 60 60" fill="none" xmlns="http://www.w3.org/2000/svg">
<g clip-path="url(#clip0_211_3615)">
<path d="M12.8226 40.349H6.97256C6.7159 40.349 6.46975 40.2471 6.28827 40.0656C6.10678 39.8841 6.00482 39.638 6.00482 39.3813V33.5168C6.00482 32.9827 6.43825 32.549 6.97256 32.549H12.8216C13.3555 32.549 13.7893 32.9827 13.7893 33.5168V39.3813C13.7903 39.9166 13.3565 40.349 12.8226 40.349ZM7.94031 38.4136H11.8539V34.4845H7.94043L7.94031 38.4136ZM12.8226 27.448H6.97256C6.7159 27.448 6.46975 27.346 6.28827 27.1645C6.10678 26.983 6.00482 26.7369 6.00482 26.4802V20.6162C6.00482 20.3595 6.10678 20.1134 6.28827 19.9319C6.46975 19.7504 6.7159 19.6484 6.97256 19.6484H12.8216C13.3555 19.6484 13.7893 20.0817 13.7893 20.6162V26.4802C13.7903 27.0156 13.3565 27.448 12.8226 27.448ZM7.94031 25.5125H11.8539V21.5839H7.94043L7.94031 25.5125ZM12.8226 53.25H6.97256C6.7159 53.25 6.46975 53.1481 6.28827 52.9666C6.10678 52.7851 6.00482 52.5389 6.00482 52.2823V46.4178C6.00482 45.8837 6.43825 45.45 6.97256 45.45H12.8216C13.3555 45.45 13.7893 45.8837 13.7893 46.4178V52.2823C13.7903 52.8177 13.3565 53.25 12.8226 53.25ZM7.94031 51.3145H11.8539V47.3855H7.94043L7.94031 51.3145Z" fill="black"/>
<path d="M17.7756 60.0003H0.967742C0.43379 60.0003 0 59.5665 0 59.0326V12.6963C0 12.1618 0.43379 11.7285 0.967742 11.7285H17.7756C18.3096 11.7285 18.7433 12.1618 18.7433 12.6963V59.0326C18.7433 59.5665 18.3096 60.0003 17.7756 60.0003ZM1.93548 58.0648H16.8079V13.664H1.93548V58.0648Z" fill="black"/>
<path d="M59.0323 60H17.7756C17.2412 60 16.8079 59.5662 16.8079 59.0323V0.967742C16.8079 0.43379 17.2412 0 17.7756 0H59.0323C59.5662 0 60 0.43379 60 0.967742V59.0323C60 59.5662 59.5662 60 59.0323 60ZM18.7433 58.0645H58.0645V1.93548H18.7433V58.0645Z" fill="black"/>
<path d="M41.3284 40.3496H35.4795C35.2228 40.3496 34.9766 40.2477 34.7952 40.0662C34.6137 39.8847 34.5117 39.6385 34.5117 39.3819V33.5174C34.5117 32.9833 34.945 32.5496 35.4795 32.5496H41.3284C41.8623 32.5496 42.2961 32.9833 42.2961 33.5174V39.3819C42.2961 39.9172 41.8623 40.3496 41.3284 40.3496ZM36.4472 38.4141H40.3606V34.4851H36.4472V38.4141ZM53.0274 40.3496H47.1774C46.6435 40.3496 46.2097 39.9163 46.2097 39.3819V33.5174C46.2097 32.9833 46.6435 32.5496 47.1774 32.5496H53.0264C53.5609 32.5496 53.9942 32.9833 53.9942 33.5174V39.3819C53.9944 39.509 53.9696 39.6349 53.9211 39.7523C53.8726 39.8698 53.8014 39.9765 53.7116 40.0664C53.6218 40.1563 53.5151 40.2276 53.3977 40.2762C53.2802 40.3248 53.1544 40.3498 53.0273 40.3496H53.0274ZM48.1451 38.4141H52.0587V34.4851H48.1451V38.4141ZM29.6296 40.3496H23.7805C23.5239 40.3496 23.2777 40.2477 23.0962 40.0662C22.9148 39.8847 22.8128 39.6385 22.8128 39.3819V33.5174C22.8128 32.9833 23.2461 32.5496 23.7805 32.5496H29.6295C30.1635 32.5496 30.5972 32.9833 30.5972 33.5174V39.3819C30.5972 39.9172 30.1635 40.3496 29.6295 40.3496H29.6296ZM24.7483 38.4141H28.6617V34.4851H24.7483V38.4141ZM41.3284 27.4485H35.4795C35.2228 27.4485 34.9766 27.3466 34.7952 27.1651C34.6137 26.9836 34.5117 26.7375 34.5117 26.4808V20.6168C34.5117 20.3601 34.6137 20.1139 34.7952 19.9325C34.9766 19.751 35.2228 19.649 35.4795 19.649H41.3284C41.8623 19.649 42.2961 20.0823 42.2961 20.6168V26.4808C42.2961 27.0162 41.8623 27.4485 41.3284 27.4485ZM36.4472 25.5131H40.3606V21.5845H36.4472V25.5131ZM53.0274 27.4485H47.1774C46.6435 27.4485 46.2097 27.0152 46.2097 26.4808V20.6168C46.2097 20.0823 46.6435 19.649 47.1774 19.649H53.0264C53.2831 19.649 53.5292 19.751 53.7107 19.9325C53.8922 20.1139 53.9942 20.3601 53.9942 20.6168V26.4808C53.9944 26.6079 53.9696 26.7338 53.9211 26.8512C53.8726 26.9687 53.8014 27.0755 53.7116 27.1654C53.6218 27.2553 53.5151 27.3266 53.3977 27.3751C53.2802 27.4237 53.1544 27.4487 53.0273 27.4485H53.0274ZM48.1451 25.5131H52.0587V21.5845H48.1451V25.5131ZM29.6296 27.4485H23.7805C23.5239 27.4485 23.2777 27.3466 23.0962 27.1651C22.9148 26.9836 22.8128 26.7375 22.8128 26.4808V20.6168C22.8128 20.3601 22.9148 20.1139 23.0962 19.9325C23.2777 19.751 23.5239 19.649 23.7805 19.649H29.6295C30.1635 19.649 30.5972 20.0823 30.5972 20.6168V26.4808C30.5972 27.0162 30.1635 27.4485 29.6295 27.4485H29.6296ZM24.7483 25.5131H28.6617V21.5845H24.7483V25.5131ZM41.3284 14.548H35.4795C34.945 14.548 34.5117 14.1143 34.5117 13.5803V7.71579C34.5117 7.45913 34.6137 7.21298 34.7952 7.03149C34.9766 6.85001 35.2228 6.74805 35.4795 6.74805H41.3284C41.8623 6.74805 42.2961 7.18123 42.2961 7.71579V13.5803C42.2961 14.1143 41.8623 14.548 41.3284 14.548ZM36.4472 12.6126H40.3606V8.68353H36.4472V12.6126ZM53.0274 14.548H47.1774C46.6435 14.548 46.2097 14.1143 46.2097 13.5803V7.71579C46.2097 7.18123 46.6435 6.74805 47.1774 6.74805H53.0264C53.2831 6.74805 53.5292 6.85001 53.7107 7.03149C53.8922 7.21298 53.9942 7.45913 53.9942 7.71579V13.5803C53.995 14.1143 53.5617 14.548 53.0273 14.548H53.0274ZM48.1451 12.6126H52.0587V8.68353H48.1451V12.6126ZM29.6296 14.548H23.7805C23.2461 14.548 22.8128 14.1143 22.8128 13.5803V7.71579C22.8128 7.45913 22.9148 7.21298 23.0962 7.03149C23.2777 6.85001 23.5239 6.74805 23.7805 6.74805H29.6295C30.1635 6.74805 30.5972 7.18123 30.5972 7.71579V13.5803C30.5972 14.1143 30.1635 14.548 29.6295 14.548H29.6296ZM24.7483 12.6126H28.6617V8.68353H24.7483V12.6126ZM43.2492 59.9997H33.5581C33.0242 59.9997 32.5904 59.566 32.5904 59.032V46.4192C32.5904 45.8852 33.0242 45.4514 33.5581 45.4514H43.2492C43.7837 45.4514 44.217 45.8852 44.217 46.4192V59.032C44.217 59.566 43.7837 59.9997 43.2492 59.9997ZM34.5259 58.0643H42.2815V47.3869H34.5259V58.0643ZM53.0274 53.2506H47.1774C46.6435 53.2506 46.2097 52.8173 46.2097 52.2828V46.4183C46.2097 45.8843 46.6435 45.4506 47.1774 45.4506H53.0264C53.5609 45.4506 53.9942 45.8843 53.9942 46.4183V52.2828C53.9944 52.4099 53.9696 52.5358 53.9211 52.6533C53.8726 52.7708 53.8014 52.8775 53.7116 52.9674C53.6218 53.0573 53.5151 53.1286 53.3977 53.1772C53.2802 53.2258 53.1544 53.2507 53.0273 53.2506H53.0274ZM48.1451 51.3151H52.0587V47.3861H48.1451V51.3151ZM29.6296 53.2506H23.7805C23.5239 53.2506 23.2777 53.1486 23.0962 52.9671C22.9148 52.7857 22.8128 52.5395 22.8128 52.2828V46.4183C22.8128 45.8843 23.2461 45.4506 23.7805 45.4506H29.6295C30.1635 45.4506 30.5972 45.8843 30.5972 46.4183V52.2828C30.5972 52.8183 30.1635 53.2506 29.6295 53.2506H29.6296ZM24.7483 51.3151H28.6617V47.3861H24.7483V51.3151Z" fill="black"/>
</g>
<defs>
<clipPath id="clip0_211_3615">
<rect width="60" height="60" fill="white"/>
</clipPath>
</defs>
</svg>
