<svg width="6" height="8" viewBox="0 0 6 8" fill="none" xmlns="http://www.w3.org/2000/svg">
<path d="M0.541016 1.4375C0.541016 1.18886 0.639856 0.950403 0.815794 0.774587C0.991732 0.598772 1.23035 0.5 1.47917 0.5H4.29362C4.54244 0.5 4.78106 0.598772 4.957 0.774587C5.13293 0.950403 5.23178 1.18886 5.23178 1.4375V7.0625C5.23178 7.31114 5.13293 7.5496 4.957 7.72541C4.78106 7.90123 4.54244 8 4.29362 8H1.47917C1.23035 8 0.991732 7.90123 0.815794 7.72541C0.639856 7.5496 0.541016 7.31114 0.541016 7.0625V1.4375ZM3.35547 6.59375C3.35547 6.46943 3.30605 6.3502 3.21808 6.26229C3.13011 6.17439 3.0108 6.125 2.8864 6.125C2.76199 6.125 2.64268 6.17439 2.55471 6.26229C2.46674 6.3502 2.41732 6.46943 2.41732 6.59375C2.41732 6.71807 2.46674 6.8373 2.55471 6.92521C2.64268 7.01311 2.76199 7.0625 2.8864 7.0625C3.0108 7.0625 3.13011 7.01311 3.21808 6.92521C3.30605 6.8373 3.35547 6.71807 3.35547 6.59375Z" fill="#82CCD5"/>
</svg>
