<svg width="60" height="60" viewBox="0 0 60 60" fill="none" xmlns="http://www.w3.org/2000/svg">
<g clip-path="url(#clip0_211_3611)">
<path d="M58.4256 46.2866L46.2814 38.1878C44.7402 37.1683 42.6744 37.5038 41.535 38.9587L37.9976 43.507C37.7776 43.7969 37.4605 43.9978 37.1043 44.0728C36.7482 44.1477 36.377 44.0917 36.0589 43.915L35.386 43.544C33.1553 42.3281 30.3797 40.8144 24.7876 35.2202C19.1954 29.6261 17.6786 26.8484 16.4627 24.6219L16.0938 23.949C15.9147 23.6309 15.8565 23.2589 15.93 22.9013C16.0035 22.5438 16.2036 22.2248 16.4937 22.0032L21.0389 18.4668C22.4933 17.3273 22.8292 15.2621 21.8109 13.7205L13.7121 1.57626C12.6684 0.00641253 10.5746 -0.464846 8.95894 0.506377L3.88067 3.5569C2.28503 4.49493 1.11443 6.01418 0.614199 7.79623C-1.21448 14.4592 0.161218 25.9585 17.1007 42.9C30.5758 56.374 40.6073 59.9975 47.5023 59.9975C49.0891 60.0043 50.6697 59.7978 52.2016 59.3837C53.984 58.8841 55.5035 57.7133 56.4409 56.1172L59.4945 51.042C60.4671 49.426 59.9961 47.3308 58.4256 46.2866ZM57.7717 50.016L54.7251 55.0943C54.0519 56.2464 52.9591 57.0933 51.6755 57.458C45.5244 59.1467 34.7781 57.748 18.5154 41.4853C2.25282 25.2227 0.854163 14.4773 2.54294 8.32526C2.90809 7.04008 3.7561 5.94592 4.90954 5.27169L9.98781 2.22515C10.6888 1.80333 11.5976 2.0078 12.0505 2.68902L16.4499 9.29402L20.1424 14.8322C20.5846 15.5009 20.4393 16.3971 19.8084 16.8919L15.2621 20.4283C13.8786 21.4863 13.4835 23.4005 14.3353 24.9197L14.6963 25.5756C15.9741 27.9193 17.5629 30.8348 23.363 36.634C29.1632 42.4331 32.0778 44.0219 34.4204 45.2997L35.0772 45.6616C36.5963 46.5133 38.5106 46.1184 39.5686 44.7348L43.105 40.1885C43.5999 39.558 44.4958 39.4128 45.1647 39.8546L57.3079 47.9534C57.9896 48.4059 58.194 49.3151 57.7717 50.016ZM33.9982 10.005C43.3813 10.0154 50.9852 17.6194 50.9957 27.0025C50.9957 27.5547 51.4433 28.0023 51.9955 28.0023C52.5477 28.0023 52.9953 27.5547 52.9953 27.0025C52.9837 16.5154 44.4853 8.01686 33.9982 8.00538C33.446 8.00538 32.9984 8.45297 32.9984 9.00519C32.9984 9.55742 33.446 10.005 33.9982 10.005Z" fill="black"/>
<path d="M33.9982 16.0035C40.0695 16.0107 44.9895 20.9307 44.9966 27.0019C44.9966 27.2671 45.1019 27.5214 45.2894 27.7089C45.4769 27.8964 45.7312 28.0018 45.9964 28.0018C46.2616 28.0018 46.5159 27.8964 46.7034 27.7089C46.8909 27.5214 46.9962 27.2671 46.9962 27.0019C46.9879 19.8267 41.1733 14.0121 33.9982 14.0039C33.446 14.0039 32.9984 14.4515 32.9984 15.0037C32.9984 15.5559 33.446 16.0035 33.9982 16.0035Z" fill="black"/>
<path d="M33.9982 22.0035C36.7578 22.0068 38.9941 24.2431 38.9975 27.0028C38.9975 27.268 39.1028 27.5223 39.2903 27.7098C39.4778 27.8973 39.7321 28.0026 39.9973 28.0026C40.2625 28.0026 40.5168 27.8973 40.7043 27.7098C40.8918 27.5223 40.9971 27.268 40.9971 27.0028C40.9927 23.1393 37.8618 20.0082 33.9982 20.0039C33.446 20.0039 32.9984 20.4515 32.9984 21.0037C32.9984 21.5559 33.446 22.0035 33.9982 22.0035Z" fill="black"/>
</g>
<defs>
<clipPath id="clip0_211_3611">
<rect width="60" height="60" fill="white"/>
</clipPath>
</defs>
</svg>
