<svg id="Capa_1" data-name="Capa 1" xmlns="http://www.w3.org/2000/svg" xmlns:xlink="http://www.w3.org/1999/xlink" viewBox="0 0 510.24 274.96"><defs><style>.cls-1,.cls-6,.cls-7{fill:none;}.cls-2{fill:#00824a;}.cls-3{clip-path:url(#clip-path);}.cls-4{fill:#fff;}.cls-5{clip-path:url(#clip-path-2);}.cls-6{stroke:#00824a;}.cls-6,.cls-7{stroke-width:2px;}.cls-7{stroke:#fff;}</style><clipPath id="clip-path"><rect class="cls-1" x="43.18" y="35.43" width="94.49" height="141.73"/></clipPath><clipPath id="clip-path-2"><rect class="cls-1" width="510.24" height="274.96"/></clipPath></defs><title>FE_E</title><rect class="cls-2" x="212.6" width="297.64" height="212.6"/><rect class="cls-2" width="212.6" height="212.6"/><polygon class="cls-2" points="90.43 35.43 43.18 106.3 90.43 177.16 137.67 106.3 90.43 35.43 90.43 35.43"/><g class="cls-3"><path class="cls-4" d="M64.88,96.57a26.86,26.86,0,0,1,2.53-12.1c1.45-2.87,4.19-5.74,8.43-5.51,1.54.08,6.24,1.17,6.27,6.39,0,2.43-1.46,6.89-8,6.89,0,0-.81,6.51-.81,9.91,0,3,.06,16.57,5.06,27.23l12-26.57,11.39,26.64s4.82-11.85,4.82-22-2.79-16.8-5.13-20.39c-3.34-5.12-7.64-6.9-9.63-6.76a7.56,7.56,0,0,1-5.45,1.87,6.65,6.65,0,0,1-6.51-6.79v0c0-3.08,2-6.52,5.19-8.54,3-1.89,8.25-1.71,11.65-.66,5.47,1.71,10.17,7.67,12.59,12,2.3,4.1,4.7,12.32,4.71,23,0,8.92-3.23,22.49-7.36,32.81a126.12,126.12,0,0,1-6.42,14.23l-9.85-19.91L80.53,148.2s-9.36-19.76-11.84-28.79-3.81-19.63-3.81-22.84"/></g><path class="cls-4" d="M49.24,106.3l41.19,61.79,41.19-61.79L90.43,44.51Zm41.19,66.8L45.9,106.3,90.43,39.5,135,106.3Z"/><rect class="cls-4" x="1" y="211.6" width="508.24" height="62.36"/><g class="cls-5"><rect class="cls-6" x="1" y="211.6" width="508.24" height="62.36"/><line class="cls-7" x1="212.6" x2="212.6" y2="212.6"/><path class="cls-2" d="M434.35,241.85V237c0-.37.1-.47.48-.47h.8c1,0,1.92.78,1.92,2.46v.84c0,1.68-.91,2.47-1.92,2.47h-.8c-.38,0-.48-.1-.48-.48m7.53,9.88-2.82-7a5.74,5.74,0,0,0,2.12-4.74v-1c0-3.45-2.22-5.72-5.17-5.72h-4.76c-.38,0-.53.15-.53.53V251.7c0,.38.15.53.53.53h2.57c.38,0,.53-.15.53-.53v-5.49c0-.38.1-.48.48-.48h1l2.39,6.15a.56.56,0,0,0,.61.35h2.82c.28,0,.38-.2.25-.5M421,237c0-.37.1-.47.48-.47h3.63c.37,0,.53-.16.53-.53v-2.17c0-.38-.16-.53-.53-.53H417.9c-.38,0-.53.15-.53.53V251.7c0,.38.15.53.53.53h7.21c.37,0,.53-.15.53-.53v-2.17c0-.37-.16-.53-.53-.53H421.5c-.38,0-.48-.1-.48-.47v-3.81c0-.38.1-.48.48-.48h3.63c.37,0,.53-.15.53-.53v-2.17c0-.37-.16-.52-.53-.52H421.5c-.38,0-.48-.11-.48-.48Zm-9.33-3.7H409.1c-.38,0-.53.15-.53.53v9.32c0,.18-.2.2-.28,0l-4.21-9.35a.68.68,0,0,0-.73-.53h-1.94c-.38,0-.53.15-.53.53v17.9c0,.38.15.53.53.53H404c.38,0,.53-.15.53-.53v-9.32c0-.18.2-.21.28,0L409,251.7c.17.38.33.53.75.53h1.94c.38,0,.53-.15.53-.53V233.86c0-.38-.15-.53-.53-.53m-15.95,0h-9.07c-.38,0-.53.15-.53.53V236c0,.37.15.53.53.53h2.24c.38,0,.48.1.48.47v14.7c0,.38.15.53.53.53h2.57c.38,0,.53-.15.53-.53V237c0-.37.1-.47.48-.47h2.24c.38,0,.53-.16.53-.53v-2.17c0-.38-.15-.53-.53-.53m-20.91,8.52V237c0-.37.1-.47.48-.47h.8c1,0,1.92.78,1.92,2.46v.84c0,1.68-.91,2.47-1.92,2.47h-.8c-.38,0-.48-.1-.48-.48m7.53,9.88-2.82-7a5.74,5.74,0,0,0,2.12-4.74v-1c0-3.45-2.22-5.72-5.17-5.72h-4.76c-.38,0-.53.15-.53.53V251.7c0,.38.15.53.53.53h2.57c.38,0,.53-.15.53-.53v-5.49c0-.38.1-.48.48-.48h1l2.39,6.15a.56.56,0,0,0,.61.35h2.82c.28,0,.38-.2.25-.5m-22.75-6,1-5.19a.15.15,0,1,1,.3,0l1,5.19c0,.18-.08.28-.21.28h-2a.2.2,0,0,1-.22-.18.3.3,0,0,1,0-.1m-4.79,6c-.1.37.1.5.38.5h2.64c.33,0,.51-.1.61-.5l.48-2.17c.07-.3.17-.35.5-.35H362c.32,0,.43,0,.5.35l.48,2.17c.1.4.28.5.6.5h2.65c.28,0,.48-.13.38-.5l-4.26-17.9c-.1-.42-.28-.5-.68-.5h-2c-.41,0-.58.08-.68.5Zm-9.35-9.25c-.38,0-.48-.1-.48-.48v-5c0-.37.1-.47.48-.47h.81c1,0,1.91.78,1.91,2.46v1c0,1.69-.91,2.47-1.91,2.47Zm-3.58,9.75h2.57c.38,0,.53-.15.53-.53v-5.34c0-.38.1-.48.48-.48h1.18c3,0,5.17-2.24,5.17-5.7v-1.13c0-3.45-2.22-5.72-5.17-5.72H341.8c-.38,0-.53.15-.53.53V251.7c0,.38.15.53.53.53M336,243.66h-5.75c-.37,0-.52.15-.52.53v1.51c0,.38.15.53.52.53H336c.38,0,.53-.15.53-.53v-1.51c0-.38-.15-.53-.53-.53m-13.88-9.83-2.27,10.69a.16.16,0,0,1-.19.12.16.16,0,0,1-.12-.12l-2.26-10.69a.55.55,0,0,0-.59-.5H314c-.28,0-.46.13-.36.5l4.44,17.9c.1.42.25.5.65.5h2c.41,0,.56-.08.66-.5l4.41-17.9c.1-.37-.08-.5-.35-.5h-2.7c-.33,0-.5.13-.6.5M305.68,251.7c0,.38.15.53.53.53h2.57c.38,0,.53-.15.53-.53V233.86c0-.38-.15-.53-.53-.53h-2.57c-.38,0-.53.15-.53.53Zm-5-4.23c0-5-6.63-7.11-7-9.65a1.38,1.38,0,0,1,1.12-1.6,1.37,1.37,0,0,1,.29,0c1,0,1.41,1.06,1.56,1.92a.36.36,0,0,0,.35.38h2.65c.3,0,.35-.21.33-.46a4.68,4.68,0,0,0-4.4-4.94,4,4,0,0,0-.6,0c-3.07,0-5,2-5,4.69,0,5.12,7.33,6.63,7,9.9a1.69,1.69,0,0,1-1.71,1.69h-.08a2.3,2.3,0,0,1-2.12-2.27c0-.27-.17-.37-.45-.37h-2.57c-.3,0-.33.2-.33.45a5.16,5.16,0,0,0,5,5.28h.41c2.44,0,5.49-1.54,5.49-5m-16.3-14.14h-2.6c-.38,0-.53.15-.53.53V246c0,1.76-.45,3.12-1.86,3.12s-1.89-1.36-1.89-3.12V233.86c0-.38-.15-.53-.53-.53h-2.57c-.38,0-.53.15-.53.53V246c0,3.91,1.76,6.48,5.52,6.48s5.52-2.57,5.52-6.48V233.86c0-.38-.16-.53-.53-.53M269,249h-3.22c-.38,0-.48-.1-.48-.47V233.86c0-.38-.15-.53-.53-.53H262.2c-.38,0-.53.15-.53.53V251.7c0,.38.15.53.53.53H269c.38,0,.53-.15.53-.53v-2.17c0-.37-.15-.53-.53-.53m-15.34-7a.68.68,0,0,1,0-.56l3.27-7.68c.1-.2.1-.43-.17-.43h-3c-.28,0-.51,0-.61.28l-3.1,7.1c-.07.15-.27.13-.27-.05v-6.8c0-.38-.15-.53-.53-.53h-2.57c-.38,0-.53.15-.53.53V251.7c0,.38.15.53.53.53h2.57c.38,0,.53-.15.53-.53v-4.54a1.78,1.78,0,0,1,.25-.93l.53-1.16a.18.18,0,0,1,.35,0l2.67,6.86a.57.57,0,0,0,.58.3h3c.27,0,.25-.23.2-.43Zm-15.5,9.73c.15.37.33.5.65.5h2.83c.27,0,.4-.2.27-.5l-4.1-9.08,3.93-8.82c.12-.3,0-.5-.28-.5H238.6c-.33,0-.51.13-.66.5l-2.16,5.22a.16.16,0,0,1-.19.12.16.16,0,0,1-.12-.12l-2.14-5.22c-.15-.37-.33-.5-.65-.5h-2.83c-.27,0-.42.2-.27.5l3.93,8.82-4.11,9.08c-.15.3,0,.5.28.5h2.82c.33,0,.48-.13.65-.5l2.32-5.55a.16.16,0,0,1,.19-.12.16.16,0,0,1,.12.12ZM220.61,237c0-.37.1-.47.47-.47h3.63c.38,0,.53-.16.53-.53v-2.17c0-.38-.15-.53-.53-.53h-7.2c-.38,0-.53.15-.53.53V251.7c0,.38.15.53.53.53h7.2c.38,0,.53-.15.53-.53v-2.17c0-.37-.15-.53-.53-.53h-3.63c-.37,0-.47-.1-.47-.47v-3.81c0-.38.1-.48.47-.48h3.63c.38,0,.53-.15.53-.53v-2.17c0-.37-.15-.52-.53-.52h-3.63c-.37,0-.47-.11-.47-.48Zm-23.72,4.82V237c0-.37.1-.47.48-.47h.81c1,0,1.91.78,1.91,2.46v.84c0,1.68-.9,2.47-1.91,2.47h-.81c-.38,0-.48-.1-.48-.48m7.54,9.88-2.82-7a5.73,5.73,0,0,0,2.11-4.74v-1c0-3.45-2.22-5.72-5.16-5.72h-4.77c-.37,0-.53.15-.53.53V251.7c0,.38.16.53.53.53h2.57c.38,0,.53-.15.53-.53v-5.49c0-.38.1-.48.48-.48h1l2.4,6.15a.55.55,0,0,0,.6.35h2.83c.27,0,.37-.2.25-.5M183.56,237c0-.37.1-.47.48-.47h3.63c.38,0,.53-.16.53-.53v-2.17c0-.38-.15-.53-.53-.53h-7.21c-.38,0-.53.15-.53.53V251.7c0,.38.15.53.53.53h7.21c.38,0,.53-.15.53-.53v-2.17c0-.37-.15-.53-.53-.53H184c-.38,0-.48-.1-.48-.47v-3.81c0-.38.1-.48.48-.48h3.63c.38,0,.53-.15.53-.53v-2.17c0-.37-.15-.52-.53-.52H184c-.38,0-.48-.11-.48-.48Zm-8.67,12h-3.22c-.38,0-.48-.1-.48-.47V233.86c0-.38-.15-.53-.53-.53h-2.57c-.38,0-.53.15-.53.53V251.7c0,.38.15.53.53.53h6.8c.38,0,.53-.15.53-.53v-2.17c0-.37-.15-.53-.53-.53m-12.37,0H159.3c-.38,0-.48-.1-.48-.47V233.86c0-.38-.15-.53-.53-.53h-2.57c-.38,0-.53.15-.53.53V251.7c0,.38.15.53.53.53h6.8c.38,0,.53-.15.53-.53v-2.17c0-.37-.15-.53-.53-.53m-17-12c0-.37.1-.47.47-.47h3.63c.38,0,.53-.16.53-.53v-2.17c0-.38-.15-.53-.53-.53h-7.2c-.38,0-.53.15-.53.53V251.7c0,.38.15.53.53.53h7.2c.38,0,.53-.15.53-.53v-2.17c0-.37-.15-.53-.53-.53H146c-.37,0-.47-.1-.47-.47v-3.81c0-.38.1-.48.47-.48h3.63c.38,0,.53-.15.53-.53v-2.17c0-.37-.15-.52-.53-.52H146c-.37,0-.47-.11-.47-.48ZM133,251.7c0,.38.15.53.53.53h2.57c.37,0,.53-.15.53-.53V233.86c0-.38-.16-.53-.53-.53h-2.57c-.38,0-.53.15-.53.53Zm-4.92-15a1.68,1.68,0,0,0,.23-.78v-2.07c0-.38-.15-.53-.53-.53h-8.69c-.38,0-.53.15-.53.53V236c0,.37.15.53.53.53h5.19c.17,0,.23.15.15.3l-5.65,12a1.52,1.52,0,0,0-.22.83v2c0,.38.15.53.53.53h8.69c.38,0,.53-.15.53-.53v-2.17c0-.37-.15-.53-.53-.53h-5.06c-.18,0-.21-.15-.13-.3Zm-17.84,15c0,.38.15.53.53.53h2.57c.38,0,.53-.15.53-.53V233.86c0-.38-.15-.53-.53-.53h-2.57c-.38,0-.53.15-.53.53Zm-5.14-18.37H97.86c-.38,0-.53.15-.53.53V251.7c0,.38.15.53.53.53h2.57c.38,0,.53-.15.53-.53v-7c0-.38.1-.48.48-.48h2.44c.38,0,.53-.15.53-.53v-2.17c0-.37-.15-.52-.53-.52h-2.44c-.38,0-.48-.11-.48-.48V237c0-.37.1-.47.48-.47h3.7c.38,0,.53-.16.53-.53v-2.17c0-.38-.15-.53-.53-.53m-13,0H84.91c-.38,0-.53.15-.53.53V251.7c0,.38.15.53.53.53h2.57c.37,0,.53-.15.53-.53v-7c0-.38.1-.48.47-.48h2.45c.38,0,.53-.15.53-.53v-2.17c0-.37-.15-.52-.53-.52H88.48c-.37,0-.47-.11-.47-.48V237c0-.37.1-.47.47-.47h3.71c.38,0,.53-.16.53-.53v-2.17c0-.38-.15-.53-.53-.53M73.82,249.1c-1.41,0-1.89-1.36-1.89-3.12v-6.4c0-1.76.48-3.13,1.89-3.13s1.86,1.37,1.86,3.13V246c0,1.76-.45,3.12-1.86,3.12m0,3.36c3.73,0,5.52-2.57,5.52-6.48v-6.4c0-3.91-1.79-6.48-5.52-6.48s-5.52,2.57-5.52,6.48V246c0,3.91,1.76,6.48,5.52,6.48"/></g><path class="cls-4" d="M361.23,142.18a47.07,47.07,0,1,0-47.06-47.06A47.07,47.07,0,0,0,361.23,142.18Zm22.45-21.11H349v-7.48h34.71Zm2.47-22.87H363V90.51h23.16Zm-48.1-30.33h48.1v7.39H344.57V86.7h-6.52V67.87Zm0,22.68h20.29v7.68H344.78V121h-6.73V90.55Z"/><path class="cls-4" d="M234.78,167.94V150H247v3.26h-9v4.91h8.53v3.14H238v6.66Z"/><path class="cls-4" d="M261.91,167.94H249.17v-18h12.74v3.29h-9.55v4.14h9.21v3.16h-9.21v4.07h9.55Z"/><path class="cls-4" d="M282,167.94H269.25v-18H282v3.29h-9.55v4.14h9.21v3.16h-9.21v4.07H282Z"/><path class="cls-4" d="M296.15,149.92h3.21v18h-2v0l-8.95-12.16v12.14h-3.21v-18h2.61l8.33,11.16Z"/><path class="cls-4" d="M315,167.94H302.25v-18H315v3.29h-9.55v4.14h9.21v3.16h-9.21v4.07H315Z"/><path class="cls-4" d="M332.56,167.94h-3.82l-5-6H320.7v6h-3.21v-18l8.09,0a5.79,5.79,0,0,1,6.12,6c0,2.46-1.07,5-4.3,5.65l5.15,6.15v.23ZM320.7,153.1v5.76h4.88a2.88,2.88,0,1,0,0-5.76Z"/><path class="cls-4" d="M346.51,154.34a6.32,6.32,0,0,0-4.33-1.8c-3.64,0-5.86,2.93-5.86,6.63,0,3,1.63,6,5.86,6a5.42,5.42,0,0,0,3.84-1.45v-3.18h-4.35v-3H349v7.59a8.28,8.28,0,0,1-6.78,3.23c-6.39,0-9-4.44-9-9.17,0-5.07,3-9.75,9-9.75a8.72,8.72,0,0,1,6.32,2.76l-2,2.16Z"/><path class="cls-4" d="M351.62,167.94v-18h3.19v18Z"/><path class="cls-4" d="M370.5,167.94H357.77v-18H370.5v3.29H361v4.14h9.21v3.16H361v4.07h9.55Z"/><path class="cls-4" d="M384,154.29a4.77,4.77,0,0,0-4-2c-2.38,0-3.53,1.06-3.53,2.39,0,1.57,1.75,2,3.79,2.27,3.55.46,6.86,1.44,6.86,5.73,0,4-3.36,5.73-7.15,5.73-3.47,0-6.15-1.13-7.41-4.42l2.67-1.47a4.83,4.83,0,0,0,4.79,2.86c2.07,0,3.91-.75,3.91-2.7,0-1.7-1.67-2.4-3.93-2.65-3.48-.44-6.69-1.42-6.69-5.45,0-3.71,3.45-5.22,6.59-5.25,2.65,0,5.39.8,6.68,3.58L384,154.28Z"/><path class="cls-4" d="M396,157.37l4.52-7.43h3.87v.16l-6.78,10.41v7.43h-3.21v-7.43l-6.54-10.41v-.16h3.82Z"/><path class="cls-4" d="M416.26,154.29a4.77,4.77,0,0,0-4-2c-2.39,0-3.53,1.06-3.53,2.39,0,1.57,1.75,2,3.79,2.27,3.55.46,6.86,1.44,6.86,5.73,0,4-3.36,5.73-7.15,5.73-3.47,0-6.15-1.13-7.41-4.42l2.67-1.47a4.82,4.82,0,0,0,4.79,2.86c2.07,0,3.91-.75,3.91-2.7,0-1.7-1.67-2.4-3.93-2.65-3.48-.44-6.69-1.42-6.69-5.45,0-3.71,3.45-5.22,6.59-5.25,2.65,0,5.39.8,6.68,3.58l-2.55,1.38Z"/><path class="cls-4" d="M426.23,153h-5.39v-3.09h14V153h-5.4v14.91h-3.21Z"/><path class="cls-4" d="M449.46,167.94H436.73v-18h12.73v3.29h-9.55v4.14h9.21v3.16h-9.21v4.07h9.55Z"/><path class="cls-4" d="M466.76,154.9l-5.54,7.82h-.63l-5.42-7.84V168H452V150h3.7l5.32,7.74L466.3,150H470v18h-3.21Z"/><path class="cls-4" d="M485.68,167.94H472.94v-18h12.74v3.29h-9.55v4.14h9.21v3.16h-9.21v4.07h9.55Z"/></svg>