<svg width="8" height="7" viewBox="0 0 8 7" fill="none" xmlns="http://www.w3.org/2000/svg">
<path d="M6.75469 2L3.75261 3.875L0.750522 2V1.25L3.75261 3.125L6.75469 1.25V2ZM6.75469 0.5H0.750522C0.333982 0.5 0 0.83375 0 1.25V5.75C0 5.94891 0.0790725 6.13968 0.219823 6.28033C0.360573 6.42098 0.551471 6.5 0.750522 6.5H6.75469C6.95375 6.5 7.14464 6.42098 7.28539 6.28033C7.42614 6.13968 7.50522 5.94891 7.50522 5.75V1.25C7.50522 1.05109 7.42614 0.860322 7.28539 0.71967C7.14464 0.579018 6.95375 0.5 6.75469 0.5Z" fill="#82CCD5"/>
</svg>
