<svg width="20" height="20" viewBox="0 0 20 20" fill="none" xmlns="http://www.w3.org/2000/svg">
<path d="M1.4679 0.400391H18.5439C19.1319 0.400391 19.5999 0.868391 19.5999 1.45639V18.5444C19.5999 19.1204 19.1319 19.6004 18.5439 19.6004H13.6479V12.1604H16.1439L16.5159 9.26839H13.6479V7.42039C13.6479 6.58039 13.8879 6.00439 15.0879 6.00439H16.6239V3.41239C16.3599 3.37639 15.4479 3.30439 14.3919 3.30439C12.1719 3.30439 10.6599 4.64839 10.6599 7.13239V9.26839H8.1519V12.1604H10.6599V19.6004H1.4679C1.18672 19.6004 0.916871 19.4895 0.716923 19.2918C0.516976 19.0941 0.403062 18.8256 0.399902 18.5444V1.45639C0.399902 0.868391 0.879902 0.400391 1.4679 0.400391Z" fill="black"/>
</svg>
