<svg width="24" height="24" viewBox="0 0 24 24" fill="none" xmlns="http://www.w3.org/2000/svg">
<path fill-rule="evenodd" clip-rule="evenodd" d="M17 8C17 10.7615 14.7615 13 12 13C9.2385 13 7 10.7615 7 8C7 5.2385 9.2385 3 12 3C14.7615 3 17 5.2385 17 8ZM16 8C16 9.06087 15.5786 10.0783 14.8284 10.8284C14.0783 11.5786 13.0609 12 12 12C10.9391 12 9.92172 11.5786 9.17157 10.8284C8.42143 10.0783 8 9.06087 8 8C8 6.93913 8.42143 5.92172 9.17157 5.17157C9.92172 4.42143 10.9391 4 12 4C13.0609 4 14.0783 4.42143 14.8284 5.17157C15.5786 5.92172 16 6.93913 16 8Z" fill="#82CCD5"/>
<path d="M15.25 14.0001C15.1968 13.988 15.1411 13.9944 15.092 14.0182C15.0429 14.042 15.0034 14.0818 14.98 14.1311L13 19.7861V18.0001L12.7125 15.9896C12.8043 15.9703 12.8888 15.9255 12.9563 15.8604C13.0239 15.7954 13.0718 15.7126 13.0945 15.6216L13.3445 14.6216C13.363 14.5479 13.3644 14.471 13.3487 14.3967C13.333 14.3224 13.3005 14.2526 13.2538 14.1927C13.2071 14.1328 13.1474 14.0843 13.0791 14.051C13.0109 14.0176 12.936 14.0002 12.86 14.0001H11.141C11.0651 14.0001 10.9901 14.0175 10.9219 14.0508C10.8536 14.0841 10.7938 14.1325 10.7471 14.1924C10.7003 14.2522 10.6678 14.3219 10.6521 14.3962C10.6363 14.4705 10.6376 14.5474 10.656 14.6211L10.906 15.6211C10.9287 15.7122 10.9765 15.7951 11.0441 15.8602C11.1116 15.9254 11.1962 15.9702 11.288 15.9896L11 18.0001V19.3481L9.02 14.1311C8.99658 14.0818 8.95708 14.042 8.908 14.0182C8.85892 13.9944 8.80319 13.988 8.75 14.0001C8.55886 14.0463 8.36752 14.0916 8.176 14.1361C7.045 14.4011 5.647 14.7281 4.904 15.2161C4.0225 15.7946 3.5 16.4766 3.5 17.2501V20.5001H20.5V17.2501C20.5 16.4766 19.9775 15.7951 19.096 15.2161C18.353 14.7281 16.955 14.4011 15.824 14.1361C15.6225 14.0891 15.429 14.0441 15.25 14.0001Z" fill="#82CCD5"/>
</svg>
