<svg width="60" height="60" viewBox="0 0 60 60" fill="none" xmlns="http://www.w3.org/2000/svg">
<path d="M59.7253 30.2747L42.8503 13.3997C42.8244 13.3736 42.7951 13.3512 42.7631 13.3331C42.6005 13.2003 42.3975 13.1268 42.1875 13.125H39.7631L42.8503 10.0378C42.9814 9.9067 43.0706 9.73967 43.1068 9.55784C43.1429 9.37601 43.1244 9.18754 43.0534 9.01626C42.9825 8.84498 42.8624 8.69858 42.7082 8.59556C42.5541 8.49255 42.3729 8.43754 42.1875 8.4375H17.8125C17.6894 8.43732 17.5674 8.4615 17.4537 8.50864C17.3399 8.55579 17.2366 8.62496 17.1497 8.71219L0.274686 25.5872C0.143615 25.7183 0.0543587 25.8853 0.0182016 26.0672C-0.0179554 26.249 0.000609839 26.4375 0.0715505 26.6087C0.142491 26.78 0.262622 26.9264 0.416756 27.0294C0.57089 27.1325 0.752108 27.1875 0.937499 27.1875H3.36187L0.274686 30.2747C0.143615 30.4058 0.0543587 30.5728 0.0182016 30.7547C-0.0179554 30.9365 0.000609839 31.125 0.0715505 31.2962C0.142491 31.4675 0.262622 31.6139 0.416756 31.7169C0.57089 31.82 0.752108 31.875 0.937499 31.875H2.8125V50.625C2.8125 50.8736 2.91127 51.1121 3.08709 51.2879C3.2629 51.4637 3.50136 51.5625 3.75 51.5625H56.25C56.4986 51.5625 56.7371 51.4637 56.9129 51.2879C57.0887 51.1121 57.1875 50.8736 57.1875 50.625V31.875H59.0625C59.2479 31.875 59.4291 31.82 59.5832 31.7169C59.7374 31.6139 59.8575 31.4675 59.9284 31.2962C59.9994 31.125 60.0179 30.9365 59.9818 30.7547C59.9456 30.5728 59.8564 30.4058 59.7253 30.2747ZM36.8381 13.3988L36.8362 13.4006L33.3619 16.875H27.5756L34.1381 10.3125H39.9244L36.8381 13.3988ZM10.7006 25.3125L17.2631 18.75H23.0494L16.4869 25.3125H10.7006ZM31.4869 10.3125L24.9244 16.875H19.1381L25.7006 10.3125H31.4869ZM25.7006 18.75H31.4869L24.9244 25.3125H19.1381L25.7006 18.75ZM18.2006 10.3125H23.0494L16.4869 16.875H11.6381L18.2006 10.3125ZM9.76312 18.75H14.6119L8.04937 25.3125H3.20062L9.76312 18.75ZM6.01312 27.1875H25.3125C25.5619 27.1875 25.7991 27.0881 25.9753 26.9128L37.8881 15H39.9244L24.9244 30H3.20062L6.01312 27.1875ZM4.6875 31.875H27.1875V49.6875H4.6875V31.875ZM38.4375 49.6875V36.5625H45.9375V49.6875H38.4375ZM56.25 30C56.0014 30 55.7629 30.0988 55.5871 30.2746C55.4113 30.4504 55.3125 30.6889 55.3125 30.9375V49.6875H47.8125V35.625C47.8125 35.3764 47.7137 35.1379 47.5379 34.9621C47.3621 34.7863 47.1236 34.6875 46.875 34.6875H37.5C37.2514 34.6875 37.0129 34.7863 36.8371 34.9621C36.6613 35.1379 36.5625 35.3764 36.5625 35.625V49.6875H29.0625V30.9375C29.0625 30.6889 28.9637 30.4504 28.7879 30.2746C28.6121 30.0988 28.3736 30 28.125 30H27.5756L42.1875 15.3881L56.7994 30H56.25Z" fill="black"/>
<path d="M42.1875 22.5C39.6028 22.5 37.5 24.6028 37.5 27.1875C37.5 29.7722 39.6028 31.875 42.1875 31.875C44.7722 31.875 46.875 29.7722 46.875 27.1875C46.875 24.6028 44.7722 22.5 42.1875 22.5ZM42.1875 30C40.6369 30 39.375 28.7381 39.375 27.1875C39.375 25.6369 40.6369 24.375 42.1875 24.375C43.7381 24.375 45 25.6369 45 27.1875C45 28.7391 43.7391 30 42.1875 30ZM24.375 34.6875H7.5C7.25136 34.6875 7.0129 34.7863 6.83709 34.9621C6.66127 35.1379 6.5625 35.3764 6.5625 35.625V45C6.5625 45.2486 6.66127 45.4871 6.83709 45.6629C7.0129 45.8387 7.25136 45.9375 7.5 45.9375H24.375C24.6236 45.9375 24.8621 45.8387 25.0379 45.6629C25.2137 45.4871 25.3125 45.2486 25.3125 45V35.625C25.3125 35.3764 25.2137 35.1379 25.0379 34.9621C24.8621 34.7863 24.6236 34.6875 24.375 34.6875ZM8.4375 36.5625H15V44.0625H8.4375V36.5625ZM23.4375 44.0625H16.875V36.5625H23.4375V44.0625Z" fill="black"/>
</svg>
