<svg width="20" height="20" viewBox="0 0 20 20" fill="none" xmlns="http://www.w3.org/2000/svg">
<path d="M10.0003 1.66602C8.35215 1.66602 6.74099 2.15476 5.37058 3.07044C4.00017 3.98611 2.93206 5.2876 2.30133 6.81032C1.6706 8.33304 1.50558 10.0086 1.82712 11.6251C2.14866 13.2416 2.94234 14.7265 4.10777 15.8919C5.27321 17.0573 6.75807 17.851 8.37458 18.1726C9.99109 18.4941 11.6666 18.3291 13.1894 17.6983C14.7121 17.0676 16.0136 15.9995 16.9292 14.6291C17.8449 13.2587 18.3337 11.6475 18.3337 9.99935C18.3337 8.905 18.1181 7.82137 17.6993 6.81032C17.2805 5.79927 16.6667 4.88061 15.8929 4.10679C15.1191 3.33297 14.2004 2.71914 13.1894 2.30035C12.1783 1.88156 11.0947 1.66602 10.0003 1.66602ZM10.8337 13.3327C10.8337 13.5537 10.7459 13.7657 10.5896 13.9219C10.4333 14.0782 10.2213 14.166 10.0003 14.166C9.77931 14.166 9.56735 14.0782 9.41107 13.9219C9.25479 13.7657 9.167 13.5537 9.167 13.3327V9.16602C9.167 8.945 9.25479 8.73304 9.41107 8.57676C9.56735 8.42048 9.77931 8.33268 10.0003 8.33268C10.2213 8.33268 10.4333 8.42048 10.5896 8.57676C10.7459 8.73304 10.8337 8.945 10.8337 9.16602V13.3327ZM10.0003 7.49935C9.83551 7.49935 9.67439 7.45048 9.53735 7.35891C9.40031 7.26734 9.2935 7.13719 9.23043 6.98492C9.16736 6.83265 9.15085 6.66509 9.18301 6.50344C9.21516 6.34179 9.29453 6.1933 9.41107 6.07676C9.52762 5.96022 9.6761 5.88085 9.83775 5.84869C9.9994 5.81654 10.167 5.83304 10.3192 5.89612C10.4715 5.95919 10.6017 6.066 10.6932 6.20304C10.7848 6.34008 10.8337 6.5012 10.8337 6.66602C10.8337 6.88703 10.7459 7.09899 10.5896 7.25527C10.4333 7.41155 10.2213 7.49935 10.0003 7.49935Z" fill="#CCCCCC"/>
</svg>
