<svg width="81" height="50" viewBox="0 0 81 50" fill="none" xmlns="http://www.w3.org/2000/svg">
<g clip-path="url(#clip0_212_4137)">
<path d="M32.6922 37.5039H57.789V32.0694H32.6922V37.5039ZM42.1513 21.4171H57.79V15.9826H42.1513V21.4171ZM24.7972 0V13.3748H30.0039V5.43444H57.789V0H24.7972ZM39.4651 16.0174H24.7972V37.4714H30.0039V21.4518H39.4651V16.0174Z" fill="#82CCD5"/>
<path d="M0 49.8536V44.1289H3.94716V45.1694H1.03582V46.7337H3.78998V47.7327H1.03582V49.8536H0Z" fill="#82CCD5"/>
<path d="M8.75645 49.852H4.64502V44.1191H8.75645V45.1678H5.67306V46.4862H8.6467V47.4932H5.67306V48.7872H8.75645V49.852Z" fill="#82CCD5"/>
<path d="M15.2378 49.852H11.1263V44.1191H15.2378V45.1678H12.1543V46.4862H15.128V47.4932H12.1543V48.7872H15.2378V49.852Z" fill="#82CCD5"/>
<path d="M19.812 44.1113H20.8479V49.8523H20.2043V49.8606L17.317 45.9868V49.8523H16.2812V44.1194H17.1209L19.812 47.674V44.1113Z" fill="#82CCD5"/>
<path d="M25.8932 49.852H21.7817V44.1191H25.8932V45.1678H22.8098V46.4862H25.7834V47.4932H22.8098V48.7872H25.8932V49.852Z" fill="#82CCD5"/>
<path d="M31.5668 49.8523H30.3348L28.734 47.936H27.7378V49.8523H26.702V44.1113C27.5728 44.1113 28.4437 44.1194 29.3146 44.1194C30.6095 44.1276 31.2921 45.0284 31.2921 46.0193C31.2921 46.8055 30.9465 47.5999 29.9029 47.8208L31.5661 49.7786V49.8523H31.5668ZM27.7378 45.1267V46.9606H29.3153C29.9744 46.9606 30.2569 46.5018 30.2569 46.0437C30.2569 45.5856 29.9667 45.1267 29.3153 45.1267H27.7378Z" fill="#82CCD5"/>
<path d="M36.0705 45.5203C35.7016 45.1515 35.1522 44.9468 34.6736 44.9468C33.4969 44.9468 32.7825 45.8801 32.7825 47.0597C32.7825 48.0018 33.3085 48.9759 34.6736 48.9759C35.1054 48.9759 35.4821 48.8773 35.9133 48.5166V47.5013H34.5086V46.5347H36.8627V48.9504C36.3211 49.5972 35.6386 49.9823 34.6736 49.9823C32.6097 49.9823 31.77 48.5657 31.77 47.0587C31.77 45.4456 32.735 43.9551 34.6736 43.9551C35.4113 43.9551 36.1484 44.2499 36.7134 44.8315L36.0698 45.5195L36.0705 45.5203Z" fill="#82CCD5"/>
<path d="M37.7186 49.852V44.1191H38.7466V49.852H37.7186Z" fill="#82CCD5"/>
<path d="M43.8154 49.852H39.704V44.1191H43.8154V45.1678H40.732V46.4862H43.7057V47.4932H40.732V48.7872H43.8154V49.852Z" fill="#82CCD5"/>
<path d="M48.1702 45.5041C47.9819 45.1766 47.4641 44.8655 46.8671 44.8655C46.0984 44.8655 45.7296 45.201 45.7296 45.6274C45.7296 46.127 46.2946 46.2659 46.9538 46.3481C48.0995 46.4949 49.166 46.8069 49.166 48.1741C49.166 49.4518 48.0835 50 46.8596 50C45.7373 50 44.8743 49.6393 44.4665 48.5916L45.3295 48.1245C45.5731 48.7546 46.2082 49.0333 46.8751 49.0333C47.5423 49.0333 48.1383 48.7963 48.1383 48.1731C48.1383 47.6328 47.5966 47.4116 46.8671 47.3291C45.7452 47.1903 44.7094 46.8787 44.7094 45.5927C44.7094 44.4133 45.8237 43.93 46.8353 43.9219C47.6907 43.9219 48.577 44.1761 48.9937 45.0606L48.1692 45.5026L48.1702 45.5041Z" fill="#82CCD5"/>
<path d="M52.038 46.4862L53.4975 44.1191H54.7448V44.1687L52.5554 47.4853V49.852H51.5197V47.4853L49.4091 44.1687V44.1191H50.6414L52.038 46.4862Z" fill="#82CCD5"/>
<path d="M58.5901 45.5041C58.4019 45.1766 57.8841 44.8655 57.2871 44.8655C56.5183 44.8655 56.1494 45.201 56.1494 45.6274C56.1494 46.127 56.7145 46.2659 57.3737 46.3481C58.5194 46.4949 59.586 46.8069 59.586 48.1741C59.586 49.4518 58.5035 50 57.2796 50C56.1573 50 55.2944 49.6393 54.8866 48.5916L55.7495 48.1245C55.993 48.7546 56.6283 49.0333 57.2951 49.0333C57.9618 49.0333 58.5583 48.7963 58.5583 48.1731C58.5583 47.6328 58.0166 47.4116 57.2871 47.3291C56.1653 47.1903 55.1291 46.8787 55.1291 45.5927C55.1291 44.4133 56.2435 43.93 57.2553 43.9219C58.1107 43.9219 58.997 44.1761 59.4132 45.0606L58.5892 45.5026L58.5901 45.5041Z" fill="#82CCD5"/>
<path d="M61.8072 45.102H60.0655V44.1191H64.5846V45.102H62.8429V49.852H61.8072V45.102Z" fill="#82CCD5"/>
<path d="M69.3084 49.852H65.197V44.1191H69.3084V45.1678H66.2252V46.4862H69.1988V47.4932H66.2252V48.7872H69.3084V49.852Z" fill="#82CCD5"/>
<path d="M74.8955 45.7015L73.1065 48.1911H72.9028L71.1531 45.6933V49.8619H70.1174V44.1289H71.3095L73.0278 46.5943L74.7461 44.1289H75.9316V49.8619H74.8955V45.7015Z" fill="#82CCD5"/>
<path d="M81 49.852H76.8887V44.1191H81V45.1678H77.9164V46.4862H80.8905V47.4932H77.9164V48.7872H81V49.852Z" fill="#82CCD5"/>
</g>
<defs>
<clipPath id="clip0_212_4137">
<rect width="81" height="50" fill="white"/>
</clipPath>
</defs>
</svg>
