<?xml version="1.0" encoding="utf-8"?>
<!-- Generator: $$$/GeneralStr/196=Adobe Illustrator 27.6.0, SVG Export Plug-In . SVG Version: 6.00 Build 0)  -->
<svg version="1.1" id="Ebene_1" xmlns="http://www.w3.org/2000/svg" xmlns:xlink="http://www.w3.org/1999/xlink" x="0px" y="0px"
	 viewBox="0 0 2000.1 1005.2" style="enable-background:new 0 0 2000.1 1005.2;" xml:space="preserve">
<style type="text/css">
	.st0{clip-path:url(#SVGID_00000079473691177486830960000015676172468380627115_);fill:#82CCD5;}
	.st1{clip-path:url(#SVGID_00000079473691177486830960000015676172468380627115_);}
	.st2{fill:#82CCD5;}
</style>
<g>
	<defs>
		<rect id="SVGID_1_" y="0" width="2000.1" height="1005.2"/>
	</defs>
	<clipPath id="SVGID_00000082345543421686026490000015782350759809175726_">
		<use xlink:href="#SVGID_1_"  style="overflow:visible;"/>
	</clipPath>
	<path style="clip-path:url(#SVGID_00000082345543421686026490000015782350759809175726_);fill:#82CCD5;" d="M1000,746
		c206,0,373-167,373-373S1206.1,0,1000,0C794,0,627,167,627,373S794,746,1000,746 M1200.1,580.7H904v-61.5h296.1V580.7z
		 M1200.1,398.8h-184.5h0l0-61.5h184.5V398.8z M810.8,156.7l389.3,0v61.4H872.2v89.7h-61.4V156.7z M810.8,337.7h173.1v61.4H872.2
		v181.2h-61.4V337.7z"/>
	<g style="clip-path:url(#SVGID_00000082345543421686026490000015782350759809175726_);">
		<path class="st2" d="M9.4,946.1V812h96.5v24.4H34.7V873h67.3v23.4H34.7v49.7H9.4z"/>
		<path class="st2" d="M223.5,946.1H123c0-44.7,0-89.6,0-134.3h100.5v24.6h-75.4v30.9h72.7v23.6h-72.7v30.3h75.4V946.1z"/>
		<path class="st2" d="M382,946.1H281.5c0-44.7,0-89.6,0-134.3H382v24.6h-75.4v30.9h72.7v23.6h-72.7v30.3H382V946.1z"/>
		<path class="st2" d="M493.6,811.7H519v134.5h-15.7v0.2l-70.6-90.8v90.6h-25.3V811.8h20.5l65.8,83.3V811.7z"/>
		<path class="st2" d="M642.3,946.1H541.8c0-44.7,0-89.6,0-134.3h100.5v24.6h-75.4v30.9h72.7v23.6h-72.7v30.3h75.4V946.1z"/>
		<path class="st2" d="M781.1,946.1h-30.1l-39.1-44.9h-24.4v44.9h-25.3V811.7c21.3,0,42.6,0.2,63.9,0.2
			c31.7,0.2,48.3,21.3,48.3,44.5c0,18.4-8.4,37-34,42.2l40.7,45.9V946.1z M687.4,835.4v43H726c16.1,0,23-10.7,23-21.5
			s-7.1-21.5-23-21.5H687.4z"/>
		<path class="st2" d="M891.2,844.7c-9-8.6-22.4-13.4-34.2-13.4c-28.8,0-46.2,21.9-46.2,49.5c0,22.1,12.9,44.9,46.2,44.9
			c10.6,0,19.8-2.3,30.3-10.7v-23.8H853v-22.6h57.6V925c-13.2,15.2-29.9,24.2-53.5,24.2c-50.5,0-71-33.2-71-68.5
			c0-37.8,23.6-72.7,71-72.7c18,0,36.1,6.9,49.9,20.5L891.2,844.7z"/>
		<path class="st2" d="M931.5,946.1V811.8h25.1v134.3H931.5z"/>
		<path class="st2" d="M1080.5,946.1H980c0-44.7,0-89.6,0-134.3h100.5v24.6h-75.4v30.9h72.7v23.6h-72.7v30.3h75.4V946.1z"/>
		<path class="st2" d="M1186.8,844.3c-4.6-7.7-17.3-15-31.8-15c-18.8,0-27.8,7.9-27.8,17.8c0,11.7,13.8,15,29.9,16.9
			c28,3.5,54.1,10.7,54.1,42.8c0,29.9-26.5,42.8-56.4,42.8c-27.4,0-48.5-8.4-58.5-33l21.1-10.9c5.9,14.8,21.5,21.3,37.8,21.3
			c15.9,0,30.9-5.6,30.9-20.1c0-12.7-13.2-17.8-31.1-19.8c-27.4-3.3-52.8-10.6-52.8-40.7c0-27.6,27.2-38.9,52-39.1
			c20.9,0,42.6,5.9,52.8,26.7L1186.8,844.3z"/>
		<path class="st2" d="M1281.6,867.3l35.7-55.4h30.5v1.2l-53.5,77.7v55.4h-25.3v-55.4l-51.6-77.7v-1.2h30.1L1281.6,867.3z"/>
		<path class="st2" d="M1441.8,844.3c-4.6-7.7-17.3-15-31.8-15c-18.8,0-27.8,7.9-27.8,17.8c0,11.7,13.8,15,29.9,16.9
			c28,3.5,54.1,10.7,54.1,42.8c0,29.9-26.5,42.8-56.4,42.8c-27.4,0-48.5-8.4-58.5-33l21.1-10.9c5.9,14.8,21.5,21.3,37.8,21.3
			c15.9,0,30.9-5.6,30.9-20.1c0-12.7-13.2-17.8-31.1-19.8c-27.4-3.3-52.8-10.6-52.8-40.7c0-27.6,27.2-38.9,52-39.1
			c20.9,0,42.6,5.9,52.8,26.7L1441.8,844.3z"/>
		<path class="st2" d="M1520.5,834.9h-42.6v-23c38.8,0,71.6,0,110.5,0v23h-42.6v111.3h-25.3V834.9z"/>
		<path class="st2" d="M1703.9,946.1h-100.5c0-44.7,0-89.6,0-134.3h100.5v24.6h-75.4v30.9h72.7v23.6h-72.7v30.3h75.4V946.1z"/>
		<path class="st2" d="M1840.5,848.9l-43.7,58.3h-5l-42.8-58.5v97.7h-25.3V812h29.2l42,57.8l42-57.8h29v134.3h-25.3V848.9z"/>
		<path class="st2" d="M1989.7,946.1h-100.5c0-44.7,0-89.6,0-134.3h100.5v24.6h-75.4v30.9h72.7v23.6h-72.7v30.3h75.4V946.1z"/>
	</g>
</g>
</svg>
